Normalized EMG Linear Envelopes
nRows=252
nColumns=4

endheader
time	 med_gas_r	  soleus_r	 tib_ant_r	
3.19355	  0.010235	  0.013400	  0.010591	
3.22681	  0.010719	  0.013463	  0.009862	
3.26008	  0.011219	  0.013522	  0.009316	
3.29335	  0.011685	  0.013576	  0.009086	
3.32661	  0.012139	  0.013629	  0.009185	
3.35988	  0.012577	  0.013694	  0.009534	
3.39315	  0.012933	  0.013820	  0.009989	
3.42641	  0.013081	  0.014031	  0.010396	
3.45968	  0.012956	  0.014291	  0.010588	
3.49294	  0.012664	  0.014558	  0.010595	
3.52621	  0.012367	  0.014781	  0.010536	
3.55948	  0.012163	  0.014915	  0.010473	
3.59274	  0.012086	  0.014957	  0.010387	
3.62601	  0.012099	  0.014938	  0.010221	
3.65927	  0.012131	  0.014866	  0.009975	
3.69254	  0.012154	  0.014748	  0.009698	
3.72581	  0.012148	  0.014594	  0.009423	
3.75907	  0.012074	  0.014414	  0.009156	
3.79234	  0.011964	  0.014202	  0.008932	
3.8256	  0.011863	  0.013985	  0.008788	
3.85887	  0.011764	  0.013803	  0.008687	
3.89214	  0.011638	  0.013724	  0.008599	
3.9254	  0.011436	  0.013812	  0.008602	
3.95867	  0.011183	  0.014109	  0.008732	
3.99194	  0.010980	  0.014610	  0.008969	
4.0252	  0.010902	  0.015224	  0.009304	
4.05847	  0.010955	  0.015857	  0.009729	
4.09173	  0.011094	  0.016402	  0.010181	
4.125	  0.011283	  0.016772	  0.010600	
4.15827	  0.011478	  0.016909	  0.010952	
4.19153	  0.011655	  0.016818	  0.011145	
4.2248	  0.011793	  0.016539	  0.011092	
4.25806	  0.011916	  0.016131	  0.010857	
4.29133	  0.012091	  0.015688	  0.010565	
4.3246	  0.012325	  0.015261	  0.010326	
4.35786	  0.012553	  0.014891	  0.010185	
4.39113	  0.012732	  0.014594	  0.010180	
4.4244	  0.012836	  0.014385	  0.010263	
4.45766	  0.012789	  0.014272	  0.010294	
4.49093	  0.012607	  0.014212	  0.010208	
4.52419	  0.012364	  0.014176	  0.010104	
4.55746	  0.012097	  0.014112	  0.010059	
4.59073	  0.011822	  0.013995	  0.010095	
4.62399	  0.011599	  0.013846	  0.010206	
4.65726	  0.011465	  0.013704	  0.010342	
4.69052	  0.011386	  0.013628	  0.010419	
4.72379	  0.011333	  0.013649	  0.010348	
4.75706	  0.011317	  0.013772	  0.010164	
4.79032	  0.011343	  0.013961	  0.009944	
4.82359	  0.011404	  0.014167	  0.009734	
4.85685	  0.011506	  0.014343	  0.009536	
4.89012	  0.011655	  0.014486	  0.009286	
4.92339	  0.011835	  0.014643	  0.008863	
4.95665	  0.011989	  0.014813	  0.008172	
4.98992	  0.012076	  0.014932	  0.007144	
5.02319	  0.012120	  0.014945	  0.005691	
5.05645	  0.012136	  0.014866	  0.003732	
5.08972	  0.012109	  0.014757	  0.001271	
5.12298	  0.012056	  0.014651	 -0.001548	
5.15625	  0.011990	  0.014566	 -0.004438	
5.18952	  0.011960	  0.014484	 -0.006857	
5.22278	  0.012043	  0.014368	 -0.007884	
5.25605	  0.012298	  0.014229	 -0.006089	
5.28931	  0.012797	  0.014077	  0.000514	
5.32258	  0.013623	  0.013967	  0.014354	
5.35585	  0.014885	  0.014018	  0.038020	
5.38911	  0.016695	  0.014399	  0.073836	
5.42238	  0.019158	  0.015282	  0.123202	
5.45565	  0.022403	  0.016850	  0.185491	
5.48891	  0.026421	  0.019253	  0.256857	
5.52218	  0.031031	  0.022528	  0.331149	
5.55544	  0.035916	  0.026604	  0.401825	
5.58871	  0.040830	  0.031461	  0.464630	
5.62198	  0.045733	  0.037019	  0.518556	
5.65524	  0.050536	  0.043149	  0.564162	
5.68851	  0.055623	  0.049946	  0.605169	
5.72177	  0.061374	  0.057395	  0.642807	
5.75504	  0.068037	  0.065437	  0.677987	
5.78831	  0.075607	  0.074060	  0.711491	
5.82157	  0.083568	  0.082823	  0.744158	
5.85484	  0.090836	  0.090868	  0.776516	
5.8881	  0.096294	  0.097592	  0.807498	
5.92137	  0.099390	  0.102868	  0.835001	
5.95464	  0.100275	  0.106450	  0.855941	
5.9879	  0.099382	  0.108081	  0.870625	
6.02117	  0.097700	  0.108655	  0.880839	
6.05444	  0.096047	  0.109139	  0.886876	
6.0877	  0.094854	  0.110037	  0.887722	
6.12097	  0.094123	  0.111490	  0.883766	
6.15423	  0.093388	  0.112730	  0.875570	
6.1875	  0.092091	  0.112369	  0.862490	
6.22077	  0.090231	  0.110210	  0.844772	
6.25403	  0.088447	  0.106990	  0.823606	
6.2873	  0.087553	  0.103401	  0.799054	
6.32056	  0.088206	  0.100173	  0.777675	
6.35383	  0.090463	  0.097804	  0.760078	
6.3871	  0.094032	  0.096486	  0.742394	
6.42036	  0.098654	  0.096439	  0.724247	
6.45363	  0.103362	  0.097173	  0.706029	
6.4869	  0.107283	  0.098382	  0.686008	
6.52016	  0.110239	  0.100347	  0.664682	
6.55343	  0.112468	  0.103160	  0.649375	
6.58669	  0.114293	  0.106862	  0.646327	
6.61996	  0.115900	  0.111618	  0.657281	
6.65323	  0.117222	  0.116929	  0.680324	
6.68649	  0.118423	  0.122395	  0.711896	
6.71976	  0.119871	  0.128093	  0.746618	
6.75302	  0.121745	  0.134016	  0.775835	
6.78629	  0.123099	  0.139213	  0.793875	
6.81956	  0.123004	  0.142198	  0.799991	
6.85282	  0.121083	  0.142249	  0.795307	
6.88609	  0.117968	  0.140058	  0.785308	
6.91935	  0.114710	  0.136724	  0.775795	
6.95262	  0.112462	  0.133432	  0.771491	
6.98589	  0.111526	  0.130596	  0.770977	
7.01915	  0.111102	  0.127731	  0.769736	
7.05242	  0.111161	  0.125068	  0.767813	
7.08569	  0.111944	  0.122777	  0.766604	
7.11895	  0.113454	  0.120798	  0.767050	
7.15222	  0.115621	  0.119094	  0.765824	
7.18548	  0.118019	  0.117590	  0.760582	
7.21875	  0.119829	  0.116043	  0.749680	
7.25202	  0.120561	  0.114345	  0.734096	
7.28528	  0.120630	  0.113298	  0.716569	
7.31855	  0.120609	  0.113909	  0.699804	
7.35181	  0.121313	  0.116834	  0.685341	
7.38508	  0.122887	  0.121518	  0.675342	
7.41835	  0.124639	  0.126329	  0.670808	
7.45161	  0.125512	  0.129786	  0.673452	
7.48488	  0.124430	  0.131164	  0.682438	
7.51815	  0.120107	  0.129335	  0.692316	
7.55141	  0.112218	  0.124017	  0.697354	
7.58468	  0.102109	  0.116417	  0.696723	
7.61794	  0.092217	  0.108444	  0.693546	
7.65121	  0.084044	  0.101147	  0.691599	
7.68448	  0.078189	  0.094626	  0.694474	
7.71774	  0.074405	  0.089126	  0.706541	
7.75101	  0.072263	  0.084903	  0.729708	
7.78427	  0.071940	  0.082705	  0.763475	
7.81754	  0.073241	  0.082710	  0.801315	
7.85081	  0.075828	  0.084734	  0.836783	
7.88407	  0.079300	  0.087973	  0.862870	
7.91734	  0.082660	  0.091154	  0.873132	
7.9506	  0.085029	  0.093453	  0.864466	
7.98387	  0.086256	  0.094522	  0.844263	
8.01714	  0.086538	  0.093884	  0.818836	
8.0504	  0.085967	  0.091423	  0.791370	
8.08367	  0.084719	  0.087484	  0.762962	
8.11694	  0.083239	  0.083138	  0.737569	
8.1502	  0.082144	  0.079738	  0.718999	
8.18347	  0.081658	  0.077916	  0.704548	
8.21673	  0.081920	  0.077699	  0.691439	
8.25	  0.082856	  0.078637	  0.677888	
8.28327	  0.084122	  0.079962	  0.666053	
8.31653	  0.085080	  0.080919	  0.659299	
8.3498	  0.085583	  0.081067	  0.656111	
8.38306	  0.086117	  0.080908	  0.652013	
8.41633	  0.086776	  0.080862	  0.642610	
8.4496	  0.087949	  0.081350	  0.629129	
8.48286	  0.090338	  0.082778	  0.614025	
8.51613	  0.093496	  0.084909	  0.599155	
8.5494	  0.096442	  0.087126	  0.589290	
8.58266	  0.098687	  0.089290	  0.585887	
8.61593	  0.100450	  0.091329	  0.589188	
8.64919	  0.102142	  0.093410	  0.595839	
8.68246	  0.103461	  0.095375	  0.599366	
8.71573	  0.103906	  0.097008	  0.598445	
8.74899	  0.103637	  0.098702	  0.596042	
8.78226	  0.102723	  0.100202	  0.593404	
8.81552	  0.101252	  0.101041	  0.589304	
8.84879	  0.099519	  0.101272	  0.582198	
8.88206	  0.097326	  0.100678	  0.570453	
8.91532	  0.094616	  0.099074	  0.554431	
8.94859	  0.090929	  0.096201	  0.536352	
8.98185	  0.086657	  0.092497	  0.519364	
9.01512	  0.082747	  0.088647	  0.507378	
9.04839	  0.079627	  0.084974	  0.503434	
9.08165	  0.077260	  0.081323	  0.508844	
9.11492	  0.075634	  0.077372	  0.522279	
9.14819	  0.074621	  0.073051	  0.539172	
9.18145	  0.074092	  0.068907	  0.556895	
9.21472	  0.073928	  0.065591	  0.576040	
9.24798	  0.073822	  0.063367	  0.594600	
9.28125	  0.073750	  0.062463	  0.612071	
9.31452	  0.073523	  0.062871	  0.629784	
9.34778	  0.073126	  0.064222	  0.646943	
9.38105	  0.072605	  0.066005	  0.660413	
9.41431	  0.072369	  0.068008	  0.666364	
9.44758	  0.072441	  0.069983	  0.662343	
9.48085	  0.072776	  0.071912	  0.649276	
9.51411	  0.073465	  0.074063	  0.634852	
9.54738	  0.074768	  0.076697	  0.625346	
9.58065	  0.077205	  0.080030	  0.622682	
9.61391	  0.080731	  0.083962	  0.627454	
9.64718	  0.084304	  0.087608	  0.637649	
9.68044	  0.086827	  0.090094	  0.649197	
9.71371	  0.087848	  0.091294	  0.657624	
9.74698	  0.087307	  0.091401	  0.659606	
9.78024	  0.085087	  0.090069	  0.656085	
9.81351	  0.081221	  0.087082	  0.648152	
9.84677	  0.076290	  0.083237	  0.637134	
9.88004	  0.070979	  0.078947	  0.626151	
9.91331	  0.065886	  0.074347	  0.615452	
9.94657	  0.061415	  0.069839	  0.605082	
9.97984	  0.058156	  0.065914	  0.595182	
10.0131	  0.056575	  0.062924	  0.585344	
10.0464	  0.056424	  0.061099	  0.573644	
10.0796	  0.057006	  0.060311	  0.561306	
10.1129	  0.058009	  0.060302	  0.549699	
10.1462	  0.059525	  0.061220	  0.540366	
10.1794	  0.061329	  0.062902	  0.533577	
10.2127	  0.062738	  0.064461	  0.528454	
10.246	  0.063302	  0.065181	  0.525602	
10.2792	  0.062471	  0.064267	  0.523879	
10.3125	  0.060391	  0.061398	  0.521838	
10.3458	  0.058039	  0.057579	  0.520930	
10.379	  0.056080	  0.053716	  0.519176	
10.4123	  0.054764	  0.050388	  0.516021	
10.4456	  0.054142	  0.047960	  0.514375	
10.4788	  0.053997	  0.046572	  0.517781	
10.5121	  0.054255	  0.046190	  0.526460	
10.5454	  0.055011	  0.046902	  0.537707	
10.5786	  0.055966	  0.048360	  0.546268	
10.6119	  0.056639	  0.049963	  0.548163	
10.6452	  0.057131	  0.051262	  0.547108	
10.6784	  0.057319	  0.051839	  0.543837	
10.7117	  0.056894	  0.051318	  0.535838	
10.745	  0.055646	  0.049660	  0.525649	
10.7782	  0.053617	  0.047316	  0.515191	
10.8115	  0.051186	  0.044820	  0.503656	
10.8448	  0.048736	  0.042523	  0.486974	
10.878	  0.046480	  0.040526	  0.462191	
10.9113	  0.044461	  0.038771	  0.431392	
10.9446	  0.042657	  0.037256	  0.400639	
10.9778	  0.040989	  0.036083	  0.374913	
11.0111	  0.039075	  0.035284	  0.353529	
11.0444	  0.036769	  0.034673	  0.334548	
11.0776	  0.034392	  0.034061	  0.316897	
11.1109	  0.032217	  0.033181	  0.300348	
11.1442	  0.030351	  0.031629	  0.282021	
11.1774	  0.028840	  0.029486	  0.262051	
11.2107	  0.027552	  0.027143	  0.242183	
11.244	  0.026262	  0.024802	  0.222727	
11.2772	  0.025012	  0.022640	  0.202982	
11.3105	  0.023843	  0.020757	  0.182708	
11.3437	  0.022704	  0.019203	  0.162144	
11.377	  0.021507	  0.017997	  0.141179	
11.4103	  0.020120	  0.017001	  0.120748	
11.4435	  0.018481	  0.016058	  0.101821	
11.4768	  0.016828	  0.015225	  0.084521	
11.5101	  0.015396	  0.014568	  0.067705	
11.5433	  0.014293	  0.014073	  0.051739	
